<?xml version="1.0" encoding="UTF-8"?>
<svg><g id="Page-1" stroke="none" stroke-width="1" fill="none" fill-rule="evenodd"><g id="015---Third-Eye" fill-rule="nonzero"><path d="M39.56,59 L22.44,59 C15.89,55.72 17.9,45.32 17.9,45.32 L17.87,45.27 C18.9587533,44.6653649 19.9810225,43.9481006 20.92,43.13 L20.92,39.3 C24.95,43.13 24.95,46.96 28.98,46.96 L33.02,46.96 C37.05,46.96 37.05,43.13 41.08,39.3 L41.08,43.13 C42.0189775,43.9481006 43.0412467,44.6653649 44.13,45.27 L44.1,45.32 C44.1,45.32 46.11,55.72 39.56,59 Z" id="Shape" fill="#FFE0B2"/><path d="M16.83,20.15 C16.83,20.15 15.75,18.51 14.67,19.06 C13.59,19.61 14.13,24.53 14.13,24.53 C14.5072667,26.8031205 15.8685703,28.7938439 17.85,29.97 L21,28 L17,20 L16.83,20.15 Z" id="Shape" fill="#FFE0B2"/><path d="M2,55.02 C1.89092636,54.313575 1.97738645,53.5907686 2.25,52.93 C2.85,51.9 4.53,51.33 5.54,50.79 C6.97,50.03 8.4,49.26 9.81,48.47 C11.3685784,47.4983092 13.0840661,46.8046702 14.88,46.42 C15.9321344,46.2003255 16.9418297,45.8119812 17.87,45.27 L17.9,45.32 C17.9,45.32 15.89,55.72 22.44,59 L2,59 L2,55.02 Z" id="Shape" fill="#02A9F4"/><path d="M60,55.02 L60,59 L39.56,59 C44.79,56.38 44.56,49.23 44.25,46.45 C44.18,45.74 44.1,45.32 44.1,45.32 L44.13,45.27 C45.0581703,45.8119812 46.0678656,46.2003255 47.12,46.42 C48.9159339,46.8046702 50.6314216,47.4983092 52.19,48.47 C53.6,49.26 55.03,50.03 56.46,50.79 C57.47,51.33 59.15,51.9 59.75,52.93 C60.0226136,53.5907686 60.1090736,54.313575 60,55.02 Z" id="Shape" fill="#0377BC"/><path d="M57,55.02 L57,59 L39.56,59 C44.79,56.38 44.56,49.23 44.25,46.45 C45.9987185,46.8401874 47.6689089,47.5231397 49.19,48.47 C50.6,49.26 52.03,50.03 53.46,50.79 C54.47,51.33 56.15,51.9 56.75,52.93 C57.0226136,53.5907686 57.1090736,54.313575 57,55.02 Z" id="Shape" fill="#02A9F4"/><path d="M45.17,20.15 C45.17,20.15 46.25,18.51 47.33,19.06 C48.41,19.61 47.87,24.53 47.87,24.53 C47.4927333,26.8031205 46.1314297,28.7938439 44.15,29.97 L40,30 L45.17,20.15 Z" id="Shape" fill="#DFC49C"/><path d="M44.1,28.36 C44.1,32.19 45.11,35.47 41.08,39.3 C37.05,43.13 37.05,46.96 33.02,46.96 L28.98,46.96 C24.95,46.96 24.95,43.13 20.92,39.3 C16.89,35.47 17.9,32.19 17.9,28.36 C17.9,24.53 16.39,23.43 16.89,12.49 C17.34,2.84 27.18,1.28 29.5,1.04 C29.81,1.01 29.99,1 29.99,1 L32.01,1 C32.01,1 44.6,1.55 45.11,12.49 C45.62,23.43 44.1,24.53 44.1,28.36 Z" id="Shape" fill="#DFC49C"/><path d="M41.1,28.36 C41.1,32.19 42.11,35.47 38.08,39.3 C34.05,43.13 34.05,46.96 30.02,46.96 L28.98,46.96 C24.95,46.96 24.95,43.13 20.92,39.3 C16.89,35.47 17.9,32.19 17.9,28.36 C17.9,24.53 16.39,23.43 16.89,12.49 C17.34,2.84 27.18,1.28 29.5,1.04 C31.82,1.28 41.66,2.84 42.11,12.49 C42.61,23.43 41.1,24.53 41.1,28.36 Z" id="Shape" fill="#FFE0B2"/><path d="M41,16 C41,16 36.523,22 31,22 C25.477,22 21,16 21,16 C21,16 25.477,10 31,10 C36.523,10 41,16 41,16 Z" id="Shape" fill="#F09372"/><path d="M40,16 C40,16 35.971,22 31,22 C26.029,22 22,16 22,16 C22,16 26.029,10 31,10 C35.971,10 40,16 40,16 Z" id="Shape" fill="#F5F5F5"/><circle id="Oval" fill="#02A9F4" cx="31" cy="16" r="6"/><circle id="Oval" fill="#607D8B" cx="31" cy="13" r="3"/><path d="M57.661,50.267 C57.397,50.143 57.147,50.026 56.93,49.91 C55.509,49.15 54.089,48.39 52.688,47.596 C51.0265459,46.5764384 49.2049813,45.8444994 47.3,45.431 C45.3726715,44.9168012 43.5869438,43.9724819 42.077,42.669 L42.077,39.713 C45.309,36.456 45.298,33.445 45.17,30.531 C47.1464148,29.1444633 48.4803054,27.0196116 48.87,24.637 C49.27,20.909 48.906,18.732 47.79,18.169 C47.2976795,17.9115913 46.7202619,17.8713569 46.197,18.058 C46.232,16.518 46.214,14.682 46.111,12.445 C45.565,0.724 32.187,0.007 32.008,0 L29.949,0 C29.813,0.007 16.435,0.724 15.9,12.445 C15.8,14.682 15.779,16.518 15.814,18.057 C15.2918368,17.8704343 14.7154975,17.9103068 14.224,18.167 C13.105,18.732 12.74,20.909 13.145,24.667 C13.5393963,27.0374629 14.8692451,29.1502327 16.836,30.531 C16.708,33.443 16.698,36.455 19.929,39.712 L19.929,42.668 C18.4174116,43.9726366 16.6295427,44.9173453 14.7,45.431 C12.794825,45.8459249 10.973277,46.5792095 9.312,47.6 C7.912,48.394 6.491,49.154 5.071,49.914 C4.854,50.03 4.603,50.147 4.34,50.27 C3.16684205,50.6865372 2.1401488,51.4352763 1.385,52.425 C1.03913652,53.0943036 0.901563923,53.8518236 0.99,54.6 C0.996,54.74 1.001,54.88 1,55.02 L1,59 C1,59.5522847 1.44771525,60 2,60 L60,60 C60.5522847,60 61,59.5522847 61,59 L61,56.228 C61,55.828 61,55.421 61,55.02 C61,54.88 61.005,54.74 61.01,54.601 C61.0987017,53.8524926 60.9611203,53.094576 60.615,52.425 C59.8605372,51.4343242 58.8341686,50.6845261 57.661,50.267 Z M46.8,19.967 C47.0635103,21.4278362 47.0908581,22.9214968 46.881,24.391 C46.6336051,25.7337125 46.0212166,26.9823622 45.111,28 C45.1534461,27.0007104 45.2765126,26.0064796 45.479,25.027 C45.7596411,23.569761 45.9569613,22.0977051 46.07,20.618 C46.2583006,20.3462118 46.5085117,20.1230784 46.8,19.967 Z M15.124,24.423 C14.9098434,22.9411193 14.9365205,21.434371 15.203,19.961 C15.4920632,20.1211048 15.7407241,20.3451389 15.93,20.616 C16.0429815,22.0960422 16.240302,23.5684341 16.521,25.026 C16.7229942,26.0038749 16.8460572,26.9964045 16.889,27.994 C15.9922169,26.9827167 15.3827547,25.7496348 15.124,24.423 Z M18.843,30.309 C18.872,29.671 18.901,29.022 18.901,28.358 C18.8838589,27.1178674 18.7458731,25.8823585 18.489,24.669 C18.079,22.404 17.568,19.584 17.889,12.537 C18.348,2.65 29.56,2.021 29.992,2 L31.964,2 C32.441,2.021 43.65,2.622 44.107,12.538 C44.432,19.585 43.921,22.405 43.507,24.67 C43.2501269,25.8833585 43.1121411,27.1188674 43.095,28.359 C43.095,29.023 43.124,29.672 43.153,30.31 C43.291,33.327 43.4,35.71 40.383,38.578 L40.365,38.596 C39.0472642,39.89578 37.8939814,41.3523284 36.931,42.933 C35.564,45.033 34.882,45.963 33.012,45.963 L28.982,45.963 C27.112,45.963 26.43,45.035 25.063,42.933 C24.100682,41.3538973 22.9484225,39.8987121 21.632,38.6 L21.614,38.582 C18.6,35.71 18.7,33.326 18.843,30.309 Z M3,56.224 L3,55.031 C3,54.863 3,54.694 2.989,54.525 C2.93016707,54.1580651 2.97198571,53.7820429 3.11,53.437 C3.68401796,52.8231622 4.39748438,52.3566649 5.19,52.077 C5.49,51.938 5.768,51.804 6.013,51.677 C7.449,50.91 8.884,50.142 10.299,49.339 C11.7665867,48.4334572 13.374505,47.7781916 15.057,47.4 C15.6133892,47.2941431 16.1587348,47.1367996 16.686,46.93 C16.454,49.63 16.496,54.724 19.486,58.001 L3,58.001 L3,56.224 Z M39,58 L22.681,58 C17.752,55.314 18.569,47.624 18.825,45.879 C19.225,45.643 19.594,45.403 19.925,45.179 L19.925,46.967 C19.925,47.5192847 20.3727153,47.967 20.925,47.967 C21.4772847,47.967 21.925,47.5192847 21.925,46.967 L21.925,41.918 C22.488,42.649 22.96,43.36 23.391,44.018 C24.765,46.133 25.953,47.958 28.986,47.958 L33.016,47.958 C36.049,47.958 37.237,46.133 38.611,44.018 C39.042,43.356 39.511,42.645 40.077,41.918 L40.077,46.962 C40.077,47.5142847 40.5247153,47.962 41.077,47.962 C41.6292847,47.962 42.077,47.5142847 42.077,46.962 L42.077,45.174 C42.407,45.403 42.777,45.643 43.177,45.88 C43.435,47.622 44.263,55.307 39.32,58 L39,58 Z M59.012,54.526 C59.005,54.694 58.999,54.863 59,55.026 C59,55.426 59,55.826 59,56.218 L59,58 L42.514,58 C45.504,54.723 45.546,49.625 45.314,46.929 C45.8412652,47.1357996 46.3866108,47.2931431 46.943,47.399 C48.6249631,47.7763646 50.2325257,48.4306091 51.7,49.335 C53.115,50.135 54.551,50.906 55.985,51.673 C56.23,51.805 56.513,51.938 56.81,52.073 C57.6022009,52.3533011 58.3155255,52.8197056 58.89,53.433 C59.0280906,53.7797646 59.0702333,54.1573218 59.012,54.526 Z" id="Shape" fill="#000000"/><path d="M30.19,22.949 C30.7278594,23.0169984 31.2721406,23.0169984 31.81,22.949 C37.371,22.434 41.615,16.849 41.801,16.598 C42.0676667,16.2424444 42.0676667,15.7535556 41.801,15.398 C41.615,15.149 37.371,9.562 31.81,9.047 C31.2721406,8.97900156 30.7278594,8.97900156 30.19,9.047 C24.629,9.562 20.39,15.147 20.199,15.398 C19.9323333,15.7535556 19.9323333,16.2424444 20.199,16.598 C20.385,16.847 24.629,22.434 30.19,22.949 Z M26,16 C26.0023052,14.927117 26.3532696,13.8840508 27,13.028 C27.08321,15.1752636 28.8481247,16.8731097 30.997,16.8731097 C33.1458753,16.8731097 34.91079,15.1752636 34.994,13.028 C35.6428739,13.8832962 35.995967,14.92643 36,16 C36,18.7614237 33.7614237,21 31,21 C28.2385763,21 26,18.7614237 26,16 Z M33,13 C33,14.1045695 32.1045695,15 31,15 C29.8954305,15 29,14.1045695 29,13 C29,11.8954305 29.8954305,11 31,11 C32.1045695,11 33,11.8954305 33,13 Z M39.707,16 C39.0881076,16.7127879 38.4197879,17.3811076 37.707,18 C38.097675,16.6997109 38.097675,15.3132891 37.707,14.013 C38.4191161,14.6279603 39.087409,15.2919093 39.707,16 Z M24.294,14 C23.903325,15.3002891 23.903325,16.6867109 24.294,17.987 C23.581746,17.3707563 22.9134498,16.7054675 22.294,15.996 C22.9130349,15.2845892 23.5813513,14.6176094 24.294,14 Z" id="Shape" fill="#000000"/><path d="M31,25 C30.4477153,25 30,25.4477153 30,26 L30,28 C30,28.5522847 30.4477153,29 31,29 C31.5522847,29 32,28.5522847 32,28 L32,26 C32,25.4477153 31.5522847,25 31,25 Z" id="Shape" fill="#000000"/><path d="M38.778,22.364 C38.5269255,22.1040434 38.1551221,21.9997874 37.8054927,22.0913028 C37.4558632,22.1828183 37.1828183,22.4558632 37.0913028,22.8054927 C36.9997874,23.1551221 37.1040434,23.5269255 37.364,23.778 L38.778,25.192 C39.1703789,25.5709722 39.7940848,25.5655524 40.1798186,25.1798186 C40.5655524,24.7940848 40.5709722,24.1703789 40.192,23.778 L38.778,22.364 Z" id="Shape" fill="#000000"/><path d="M38.071,9.929 C38.3361948,9.92894336 38.5905073,9.82354937 38.778,9.636 L40.192,8.222 C40.4519566,7.97092553 40.5562126,7.59912211 40.4646972,7.24949268 C40.3731817,6.89986324 40.1001368,6.62681828 39.7505073,6.53530284 C39.4008779,6.4437874 39.0290745,6.54804342 38.778,6.808 L37.364,8.222 C37.0780921,8.50799425 36.9925781,8.93803662 37.147322,9.31165456 C37.3020659,9.6852725 37.6666041,9.92891365 38.071,9.929 Z" id="Shape" fill="#000000"/><path d="M31,7 C31.5522847,7 32,6.55228475 32,6 L32,4 C32,3.44771525 31.5522847,3 31,3 C30.4477153,3 30,3.44771525 30,4 L30,6 C30,6.55228475 30.4477153,7 31,7 Z" id="Shape" fill="#000000"/><path d="M23.222,9.636 C23.4730745,9.89595658 23.8448779,10.0002126 24.1945073,9.90869716 C24.5441368,9.81718172 24.8171817,9.54413676 24.9086972,9.19450732 C25.0002126,8.84487789 24.8959566,8.47307447 24.636,8.222 L23.222,6.808 C22.8296211,6.42902779 22.2059152,6.43444763 21.8201814,6.82018142 C21.4344476,7.20591522 21.4290278,7.82962111 21.808,8.222 L23.222,9.636 Z" id="Shape" fill="#000000"/><path d="M22.515,25.485 C22.7801948,25.4849434 23.0345073,25.3795494 23.222,25.192 L24.636,23.778 C24.8959566,23.5269255 25.0002126,23.1551221 24.9086972,22.8054927 C24.8171817,22.4558632 24.5441368,22.1828183 24.1945073,22.0913028 C23.8448779,21.9997874 23.4730745,22.1040434 23.222,22.364 L21.808,23.778 C21.5220921,24.0639943 21.4365781,24.4940366 21.591322,24.8676546 C21.7460659,25.2412725 22.1106041,25.4849137 22.515,25.485 Z" id="Shape" fill="#000000"/></g></g></svg>
